<?xml version="1.0" encoding="UTF-8"?>
<svg xmlns="http://www.w3.org/2000/svg" xmlns:xlink="http://www.w3.org/1999/xlink" width="18px" height="18px" viewBox="0 0 18 18" version="1.1">
<g id="surface1">
<path style=" stroke:none;fill-rule:nonzero;fill:rgb(0%,0%,0%);fill-opacity:1;" d="M 9 12.375 C 8.417969 12.375 7.835938 12.183594 7.34375 11.796875 L 0 6.089844 L 0 14.0625 C 0 14.992188 0.753906 15.75 1.6875 15.75 L 16.3125 15.75 C 17.246094 15.75 18 14.996094 18 14.0625 L 18 6.089844 L 10.660156 11.800781 C 10.164062 12.183594 9.578125 12.375 9 12.375 Z M 0.574219 5.109375 L 8.03125 10.914062 C 8.601562 11.355469 9.398438 11.355469 9.96875 10.914062 L 17.429688 5.109375 C 17.757812 4.828125 18 4.394531 18 3.9375 C 18 3.003906 17.242188 2.25 16.3125 2.25 L 1.6875 2.25 C 0.753906 2.25 0 3.003906 0 3.9375 C 0 4.394531 0.210938 4.828125 0.574219 5.109375 Z M 0.574219 5.109375 "/>
</g>
</svg>
