<?xml version="1.0" encoding="UTF-8"?>
<svg xmlns="http://www.w3.org/2000/svg" xmlns:xlink="http://www.w3.org/1999/xlink" width="16px" height="21px" viewBox="0 0 16 21" version="1.1">
<g id="surface1">
<path style=" stroke:none;fill-rule:nonzero;fill:rgb(0%,0%,0%);fill-opacity:1;" d="M 9.332031 5.25 L 9.332031 0 L 2 0 C 0.894531 0 0 0.882812 0 1.96875 L 0 19.03125 C 0 20.117188 0.894531 21 2 21 L 14 21 C 15.105469 21 16 20.117188 16 19.03125 L 16 6.5625 L 10.703125 6.5625 C 9.929688 6.5625 9.332031 5.976562 9.332031 5.25 Z M 6.421875 14.511719 C 6.746094 14.832031 6.746094 15.351562 6.421875 15.671875 C 6.257812 15.835938 6.046875 15.914062 5.832031 15.914062 C 5.621094 15.914062 5.40625 15.835938 5.246094 15.675781 L 3.246094 13.707031 C 2.917969 13.386719 2.917969 12.863281 3.246094 12.542969 L 5.246094 10.574219 C 5.570312 10.253906 6.097656 10.253906 6.421875 10.574219 C 6.746094 10.894531 6.746094 11.417969 6.421875 11.738281 L 5.011719 13.125 Z M 12.753906 12.542969 C 13.078125 12.863281 13.078125 13.382812 12.753906 13.703125 L 10.753906 15.671875 C 10.589844 15.835938 10.378906 15.914062 10.167969 15.914062 C 9.953125 15.914062 9.742188 15.835938 9.578125 15.675781 C 9.253906 15.355469 9.253906 14.832031 9.578125 14.511719 L 10.988281 13.125 L 9.578125 11.738281 C 9.25 11.417969 9.25 10.894531 9.578125 10.574219 C 9.902344 10.253906 10.429688 10.253906 10.753906 10.574219 Z M 10.667969 0 L 10.667969 5.25 L 16 5.25 Z M 10.667969 0 "/>
</g>
</svg>
