<?xml version="1.0" encoding="UTF-8"?>
<svg xmlns="http://www.w3.org/2000/svg" xmlns:xlink="http://www.w3.org/1999/xlink" width="18px" height="18px" viewBox="0 0 18 20" version="1.1">
<g id="surface1">
<path style=" stroke:none;fill-rule:nonzero;fill:rgb(0%,0%,0%);fill-opacity:1;" d="M 16.070312 1.25 L 1.929688 1.25 C 0.863281 1.25 0 2.089844 0 3.125 L 0 16.875 C 0 17.910156 0.863281 18.75 1.929688 18.75 L 16.070312 18.75 C 17.136719 18.75 18 17.910156 18 16.875 L 18 3.125 C 18 2.089844 17.136719 1.25 16.070312 1.25 Z M 11.140625 16.238281 C 10.804688 16.296875 10.679688 16.09375 10.679688 15.925781 C 10.679688 15.714844 10.6875 14.636719 10.6875 13.765625 C 10.6875 13.15625 10.480469 12.769531 10.234375 12.566406 C 11.71875 12.40625 13.285156 12.207031 13.285156 9.710938 C 13.285156 9 13.027344 8.644531 12.601562 8.1875 C 12.667969 8.019531 12.898438 7.328125 12.53125 6.429688 C 11.972656 6.261719 10.695312 7.128906 10.695312 7.128906 C 10.164062 6.984375 9.589844 6.910156 9.023438 6.910156 C 8.457031 6.910156 7.882812 6.984375 7.351562 7.128906 C 7.351562 7.128906 6.074219 6.261719 5.515625 6.429688 C 5.152344 7.324219 5.375 8.015625 5.449219 8.1875 C 5.023438 8.644531 4.820312 9 4.820312 9.710938 C 4.820312 12.195312 6.320312 12.40625 7.808594 12.566406 C 7.613281 12.734375 7.441406 13.023438 7.378906 13.4375 C 7 13.605469 6.023438 13.894531 5.441406 12.894531 C 5.074219 12.277344 4.414062 12.226562 4.414062 12.226562 C 3.765625 12.21875 4.371094 12.625 4.371094 12.625 C 4.804688 12.820312 5.109375 13.570312 5.109375 13.570312 C 5.5 14.730469 7.363281 14.339844 7.363281 14.339844 C 7.363281 14.882812 7.371094 15.765625 7.371094 15.925781 C 7.371094 16.09375 7.253906 16.296875 6.910156 16.238281 C 4.257812 15.375 2.402344 12.921875 2.402344 10.054688 C 2.402344 6.46875 5.222656 3.746094 8.910156 3.746094 C 12.601562 3.746094 15.589844 6.46875 15.589844 10.054688 C 15.59375 12.921875 13.792969 15.378906 11.140625 16.238281 Z M 7.199219 13.851562 C 7.125 13.867188 7.050781 13.835938 7.042969 13.785156 C 7.035156 13.726562 7.085938 13.675781 7.164062 13.660156 C 7.238281 13.652344 7.3125 13.683594 7.320312 13.734375 C 7.332031 13.785156 7.28125 13.835938 7.199219 13.851562 Z M 6.816406 13.816406 C 6.816406 13.867188 6.757812 13.910156 6.675781 13.910156 C 6.589844 13.917969 6.527344 13.875 6.527344 13.816406 C 6.527344 13.765625 6.589844 13.722656 6.667969 13.722656 C 6.746094 13.714844 6.816406 13.757812 6.816406 13.816406 Z M 6.269531 13.773438 C 6.25 13.824219 6.171875 13.847656 6.101562 13.824219 C 6.027344 13.808594 5.972656 13.75 5.992188 13.699219 C 6.007812 13.648438 6.085938 13.625 6.15625 13.640625 C 6.234375 13.664062 6.289062 13.722656 6.269531 13.773438 Z M 5.773438 13.5625 C 5.738281 13.605469 5.660156 13.597656 5.601562 13.539062 C 5.539062 13.488281 5.523438 13.414062 5.566406 13.378906 C 5.601562 13.335938 5.675781 13.34375 5.738281 13.402344 C 5.789062 13.453125 5.808594 13.53125 5.773438 13.5625 Z M 5.40625 13.207031 C 5.371094 13.230469 5.304688 13.207031 5.257812 13.148438 C 5.214844 13.089844 5.214844 13.023438 5.257812 12.996094 C 5.304688 12.960938 5.371094 12.988281 5.40625 13.046875 C 5.453125 13.105469 5.453125 13.175781 5.40625 13.207031 Z M 5.148438 12.828125 C 5.109375 12.863281 5.050781 12.84375 5.007812 12.804688 C 4.960938 12.753906 4.953125 12.695312 4.988281 12.667969 C 5.027344 12.632812 5.085938 12.652344 5.128906 12.691406 C 5.175781 12.742188 5.183594 12.800781 5.148438 12.828125 Z M 4.878906 12.539062 C 4.863281 12.574219 4.808594 12.582031 4.765625 12.554688 C 4.714844 12.53125 4.6875 12.488281 4.703125 12.453125 C 4.722656 12.429688 4.765625 12.417969 4.816406 12.4375 C 4.871094 12.464844 4.894531 12.507812 4.878906 12.539062 Z M 4.878906 12.539062 "/>
</g>
</svg>
