<?xml version="1.0" encoding="UTF-8"?>
<svg xmlns="http://www.w3.org/2000/svg" xmlns:xlink="http://www.w3.org/1999/xlink" width="18px" height="18px" viewBox="0 0 18 18" version="1.1">
<g id="surface1">
<path style=" stroke:none;fill-rule:nonzero;fill:rgb(0%,0%,0%);fill-opacity:1;" d="M 12.375 9 C 12.375 9.78125 12.332031 10.53125 12.257812 11.25 L 5.742188 11.25 C 5.667969 10.53125 5.59375 9.78125 5.59375 9 C 5.59375 8.21875 5.667969 7.46875 5.742188 6.75 L 12.257812 6.75 C 12.332031 7.46875 12.375 8.21875 12.375 9 Z M 17.714844 6.75 C 17.902344 7.46875 18 8.222656 18 9 C 18 9.777344 17.902344 10.53125 17.714844 11.25 L 13.386719 11.25 C 13.460938 10.527344 13.5 9.742188 13.5 9 C 13.5 8.226562 13.460938 7.472656 13.386719 6.75 Z M 17.347656 5.625 L 13.242188 5.625 C 12.890625 3.378906 12.195312 1.5 11.300781 0.296875 C 14.054688 1.023438 16.292969 3.019531 17.347656 5.625 Z M 12.105469 5.625 L 5.894531 5.625 C 6.109375 4.34375 6.441406 3.210938 6.84375 2.296875 C 7.214844 1.46875 7.625 0.863281 8.023438 0.484375 C 8.417969 0.113281 8.742188 0 9 0 C 9.257812 0 9.582031 0.113281 9.976562 0.484375 C 10.375 0.863281 10.785156 1.46875 11.15625 2.296875 C 11.558594 3.210938 11.890625 4.34375 12.105469 5.625 Z M 0.652344 5.625 C 1.707031 3.019531 3.945312 1.023438 6.699219 0.296875 C 5.804688 1.5 5.109375 3.378906 4.757812 5.625 Z M 4.613281 6.75 C 4.539062 7.472656 4.46875 8.226562 4.46875 9 C 4.46875 9.742188 4.539062 10.527344 4.613281 11.25 L 0.285156 11.25 C 0.0976562 10.53125 0 9.777344 0 9 C 0 8.222656 0.0976562 7.46875 0.285156 6.75 Z M 6.84375 15.699219 C 6.441406 14.785156 6.109375 13.65625 5.894531 12.375 L 12.105469 12.375 C 11.890625 13.65625 11.558594 14.785156 11.15625 15.699219 C 10.785156 16.535156 10.375 17.136719 9.976562 17.515625 C 9.582031 17.886719 9.257812 18 8.96875 18 C 8.742188 18 8.417969 17.886719 8.023438 17.515625 C 7.625 17.136719 7.214844 16.535156 6.84375 15.699219 Z M 6.699219 17.703125 C 3.945312 16.976562 1.707031 14.980469 0.652344 12.375 L 4.757812 12.375 C 5.109375 14.621094 5.804688 16.503906 6.699219 17.703125 Z M 11.300781 17.703125 C 12.195312 16.503906 12.890625 14.621094 13.242188 12.375 L 17.347656 12.375 C 16.292969 14.980469 14.054688 16.976562 11.300781 17.703125 Z M 11.300781 17.703125 "/>
</g>
</svg>
