<?xml version="1.0" encoding="UTF-8"?>
<svg xmlns="http://www.w3.org/2000/svg" xmlns:xlink="http://www.w3.org/1999/xlink" width="16px" height="px" viewBox="0 0 16 16" version="1.1">
<g id="surface1">
<path style=" stroke:none;fill-rule:nonzero;fill:rgb(0%,0%,0%);fill-opacity:1;" d="M 5.972656 7 C 5.972656 6.445312 5.523438 6 4.972656 6 L 4.5 6 C 3.394531 6 2.5 6.894531 2.5 8.003906 L 2.5 9.496094 C 2.5 10.601562 3.398438 11.5 4.5 11.5 L 5 11.5 C 5.550781 11.5 6 11.050781 6 10.5 Z M 8 0 C 3.527344 0 0.144531 3.722656 0 8 L 0 9.25 C 0 9.664062 0.335938 10 0.722656 10 C 1.109375 10 1.5 9.664062 1.5 9.25 L 1.5 8 C 1.5 4.414062 4.417969 1.507812 8 1.507812 C 11.585938 1.507812 14.5 4.414062 14.5 8 L 14.5 12.5 C 14.5 13.191406 13.941406 13.75 13.25 13.75 L 9.789062 13.75 C 9.53125 13.304688 9.054688 13 8.5 13 L 7.554688 13 C 6.832031 13 6.164062 13.492188 6.027344 14.203125 C 5.84375 15.164062 6.574219 16 7.472656 16 L 8.5 16 C 9.054688 16 9.53125 15.695312 9.792969 15.25 L 13.25 15.25 C 14.769531 15.25 16 14.019531 16 12.5 L 16 8 C 15.855469 3.722656 12.472656 0 8 0 Z M 11.5 11.5 C 12.605469 11.5 13.5 10.601562 13.5 9.496094 L 13.5 8.003906 C 13.5 6.898438 12.601562 6 11.5 6 L 11 6 C 10.449219 6 10 6.449219 10 7 L 10 10.496094 C 10 11.054688 10.445312 11.5 11 11.5 Z M 11.5 11.5 "/>
</g>
</svg>
