<?xml version="1.0" encoding="UTF-8"?>
<svg xmlns="http://www.w3.org/2000/svg" xmlns:xlink="http://www.w3.org/1999/xlink" width="18px" height="18px" viewBox="0 0 18 24" version="1.1">
<g id="surface1">
<path style=" stroke:none;fill-rule:nonzero;fill:rgb(0%,0%,0%);fill-opacity:1;" d="M 14.25 0 L 3.75 0 C 2.09375 0 0.75 1.34375 0.75 3 L 0.75 21 C 0.75 22.65625 2.09375 24 3.75 24 L 14.25 24 C 15.90625 24 17.25 22.65625 17.25 21 L 17.25 3 C 17.25 1.34375 15.90625 0 14.25 0 Z M 9 22.5 C 8.167969 22.5 7.5 21.832031 7.5 21 C 7.5 20.167969 8.167969 19.5 9 19.5 C 9.832031 19.5 10.5 20.167969 10.5 21 C 10.5 21.832031 9.835938 22.5 9 22.5 Z M 14.25 3 L 14.25 18 L 3.75 18 L 3.75 3 Z M 14.25 3 "/>
</g>
</svg>
